<?xml version="1.0" standalone="no"?>
<!DOCTYPE svg PUBLIC "-//W3C//DTD SVG 20010904//EN"
 "http://www.w3.org/TR/2001/REC-SVG-20010904/DTD/svg10.dtd">
<svg version="1.0" xmlns="http://www.w3.org/2000/svg"
 width="100.000000pt" height="100.000000pt" viewBox="0 0 100.000000 100.000000"
 preserveAspectRatio="xMidYMid meet">
<metadata>
Created by potrace 1.10, written by Peter Selinger 2001-2011
</metadata>
<g transform="translate(0.000000,100.000000) scale(0.100000,-0.100000)"
fill="#ffffff" stroke="none">
<path d="M381 934 c-80 -21 -144 -60 -205 -124 -61 -64 -90 -114 -111 -197
-28 -107 -13 -224 42 -325 31 -58 123 -147 181 -177 179 -91 388 -56 526 89
61 64 90 114 111 197 39 149 -1 298 -111 413 -114 120 -277 166 -433 124z m90
-60 c-34 -44 -43 -93 -32 -189 10 -85 3 -135 -19 -135 -5 0 -10 18 -10 39 0
22 -5 52 -11 68 l-10 27 -29 -52 c-15 -28 -41 -69 -58 -89 -43 -55 -52 -77
-52 -123 0 -49 18 -87 67 -141 l36 -40 18 53 c11 35 28 61 50 78 65 50 89 78
89 105 0 16 4 24 11 20 17 -11 0 -84 -39 -164 -37 -75 -45 -134 -29 -195 l8
-29 -42 6 c-65 9 -161 61 -213 117 -184 196 -128 514 110 631 52 26 159 52
173 43 2 -2 -6 -15 -18 -30z m205 -14 c149 -73 241 -250 214 -413 -28 -176
-162 -309 -339 -338 -75 -12 -89 -4 -68 37 20 38 48 63 134 118 78 49 115 94
133 164 14 53 0 128 -32 181 -22 35 -22 35 -29 11 -4 -14 -7 -38 -8 -54 -1
-33 -38 -116 -52 -116 -5 0 -4 11 1 26 6 14 10 54 10 88 0 67 -18 111 -88 222
-18 27 -35 66 -38 86 l-6 35 53 -8 c30 -5 81 -22 115 -39z"/>
</g>
</svg>
