<?xml version="1.0" standalone="no"?>
<!DOCTYPE svg PUBLIC "-//W3C//DTD SVG 20010904//EN"
 "http://www.w3.org/TR/2001/REC-SVG-20010904/DTD/svg10.dtd">
<svg version="1.0" xmlns="http://www.w3.org/2000/svg"
 width="200.000000pt" height="169.000000pt" viewBox="0 0 200.000000 169.000000"
 preserveAspectRatio="xMidYMid meet">
<metadata>
Created by potrace 1.10, written by Peter Selinger 2001-2011
</metadata>
<g transform="translate(0.000000,169.000000) scale(0.100000,-0.100000)"
fill="#FFFFFF" stroke="none">
<path d="M114 1659 c-12 -13 -14 -114 -14 -645 0 -477 3 -633 12 -642 7 -7 42
-12 88 -12 113 0 112 -1 108 199 -2 89 -1 161 2 161 3 0 46 -80 97 -178 l91
-177 88 -3 c81 -3 90 -1 105 19 l17 22 11 -21 c11 -20 19 -22 119 -22 259 1
386 55 445 190 21 49 20 25 -3 -71 -18 -77 -18 -84 -3 -101 14 -16 30 -18 102
-16 l86 3 24 123 24 123 105 -3 106 -3 18 -100 c29 -164 13 -146 131 -143 95
3 102 4 101 23 -2 25 -264 1227 -270 1237 -3 5 -43 8 -89 8 l-84 0 -10 -37
c-5 -21 -44 -200 -86 -398 -42 -198 -79 -368 -83 -378 -4 -9 -7 85 -8 210 -1
201 -3 237 -22 307 -27 97 -57 149 -117 205 -80 73 -116 84 -305 89 -216 5
-202 19 -198 -197 3 -149 -1 -184 -16 -146 -4 12 -25 15 -95 15 l-90 0 -93
-165 c-51 -90 -95 -165 -98 -165 -3 0 -4 150 -2 333 3 392 10 368 -108 370
-54 2 -75 -2 -86 -14z m889 -223 c72 -30 99 -88 118 -248 15 -130 6 -399 -16
-482 -28 -106 -64 -146 -148 -161 l-37 -7 0 456 0 456 25 0 c14 0 40 -6 58
-14z m-298 -606 c0 -231 -2 -420 -5 -420 -3 0 -10 10 -15 23 -6 12 -56 110
-112 217 l-101 195 111 202 c62 111 114 202 117 203 3 0 5 -189 5 -420z m944
175 c17 -93 34 -182 37 -197 l6 -28 -74 0 -74 0 35 200 c19 110 36 199 37 197
1 -1 16 -78 33 -172z"/>
<path d="M115 328 c-3 -7 -24 -66 -49 -130 -24 -64 -41 -119 -38 -123 14 -14
43 -3 52 20 8 21 16 25 50 25 34 0 42 -4 50 -25 9 -23 38 -34 52 -19 3 3 -13
53 -37 112 -33 81 -41 112 -34 129 7 20 5 23 -17 23 -13 0 -27 -6 -29 -12z
m30 -140 c7 -25 5 -28 -20 -28 -22 0 -26 3 -20 18 4 9 10 25 12 35 7 23 19 11
28 -25z"/>
<path d="M1928 295 c3 -33 -2 -54 -19 -81 l-22 -37 -24 27 c-15 17 -23 40 -23
62 0 31 -3 35 -22 32 -39 -5 -36 -59 6 -117 24 -32 36 -60 36 -81 0 -27 3 -31
23 -28 17 2 23 11 25 37 2 20 18 53 38 79 29 38 34 53 34 98 0 52 -1 54 -28
54 -26 0 -27 -2 -24 -45z"/>
<path d="M374 301 c-40 -17 -64 -60 -64 -113 0 -66 38 -108 98 -108 52 0 93
30 73 53 -12 15 -15 15 -37 1 -64 -43 -123 50 -72 114 14 17 58 15 79 -4 16
-14 18 -14 28 4 8 15 6 23 -7 36 -23 20 -71 28 -98 17z"/>
<path d="M584 291 c-14 -14 0 -31 26 -31 l30 0 0 -96 c0 -93 1 -95 23 -92 21
3 22 8 25 96 3 90 3 92 27 92 17 0 25 6 25 18 0 16 -9 18 -76 17 -42 0 -78 -2
-80 -4z"/>
<path d="M884 287 c-2 -7 -3 -58 -2 -113 3 -94 4 -99 26 -102 22 -3 22 -2 22
112 0 110 -1 116 -20 116 -11 0 -23 -6 -26 -13z"/>
<path d="M1070 250 c0 -41 8 -65 36 -116 22 -40 42 -64 53 -64 28 0 91 128 91
184 0 42 -2 46 -25 46 -23 0 -25 -4 -25 -45 0 -43 -26 -115 -42 -115 -16 0
-42 67 -42 110 -1 39 -4 45 -23 48 -21 3 -23 0 -23 -48z"/>
<path d="M1380 185 c0 -115 0 -116 23 -113 21 3 22 7 22 113 0 106 -1 110 -22
113 -23 3 -23 2 -23 -113z"/>
<path d="M1547 279 c-4 -14 2 -19 27 -21 l31 -3 0 -90 c0 -86 1 -90 23 -93 21
-3 22 -1 22 92 l0 96 31 0 c23 0 30 4 27 17 -2 13 -17 17 -80 18 -65 1 -77 -1
-81 -16z"/>
<path d="M30 20 c0 -7 330 -10 970 -10 640 0 970 3 970 10 0 7 -330 10 -970
10 -640 0 -970 -3 -970 -10z"/>
</g>
</svg>
