<?xml version="1.0" standalone="no"?>
<!DOCTYPE svg PUBLIC "-//W3C//DTD SVG 20010904//EN"
 "http://www.w3.org/TR/2001/REC-SVG-20010904/DTD/svg10.dtd">
<svg version="1.0" xmlns="http://www.w3.org/2000/svg"
 width="300.000000pt" height="300.000000pt" viewBox="0 0 300.000000 300.000000"
 preserveAspectRatio="xMidYMid meet">
<metadata>
Created by potrace 1.10, written by Peter Selinger 2001-2011
</metadata>
<g transform="translate(0.000000,300.000000) scale(0.050000,-0.050000)"
fill="#000000" stroke="none">
<path d="M2625 5190 c-202 -56 -344 -154 -444 -305 -283 -427 -160 -1415 253
-2038 l71 -106 -37 -115 c-50 -151 -81 -171 -531 -325 -940 -324 -1155 -493
-1288 -1018 -35 -138 -68 -493 -48 -524 7 -12 905 -17 2410 -14 l2399 5 -2
170 c-7 714 -299 1020 -1298 1361 -515 176 -559 207 -584 418 -10 86 -4 112
39 177 477 722 519 1840 80 2174 -201 154 -717 225 -1020 140z"/>
</g>
</svg>
