<?xml version="1.0" standalone="no"?>
<!DOCTYPE svg PUBLIC "-//W3C//DTD SVG 20010904//EN"
 "http://www.w3.org/TR/2001/REC-SVG-20010904/DTD/svg10.dtd">
<svg version="1.0" xmlns="http://www.w3.org/2000/svg"
 width="300.000000pt" height="300.000000pt" viewBox="0 0 300.000000 300.000000"
 preserveAspectRatio="xMidYMid meet">
<metadata>
Created by potrace 1.10, written by Peter Selinger 2001-2011
</metadata>
<g transform="translate(0.000000,300.000000) scale(0.050000,-0.050000)"
fill="#ffffff" stroke="none">
<path d="M2736 5898 c-1561 -129 -2754 -1538 -2635 -3111 184 -2444 3139
-3583 4903 -1890 1821 1747 727 4801 -1792 5002 -142 12 -263 20 -270 18 -7
-1 -99 -10 -206 -19z m1939 -3633 l-255 -255 -710 710 -710 710 -715 -715
-715 -715 -250 250 -250 250 970 970 970 970 960 -960 960 -960 -255 -255z"/>
</g>
</svg>
