<?xml version="1.0" standalone="no"?>
<!DOCTYPE svg PUBLIC "-//W3C//DTD SVG 20010904//EN"
 "http://www.w3.org/TR/2001/REC-SVG-20010904/DTD/svg10.dtd">
<svg version="1.0" xmlns="http://www.w3.org/2000/svg"
 width="300.000000pt" height="300.000000pt" viewBox="0 0 300.000000 300.000000"
 preserveAspectRatio="xMidYMid meet">
<metadata>
Created by potrace 1.10, written by Peter Selinger 2001-2011
</metadata>
<g transform="translate(0.000000,300.000000) scale(0.050000,-0.050000)"
fill="#ffffff" stroke="none">
<path d="M2736 5898 c-1558 -128 -2764 -1552 -2636 -3112 200 -2451 3139
-3583 4904 -1889 1814 1741 733 4787 -1774 5002 -132 11 -253 19 -270 18 -16
-1 -117 -10 -224 -19z m1224 -3368 l-970 -970 -960 960 -960 960 255 255 255
255 710 -710 710 -710 715 715 715 715 250 -250 250 -250 -970 -970z"/>
</g>
</svg>
