<?xml version="1.0" standalone="no"?>
<!DOCTYPE svg PUBLIC "-//W3C//DTD SVG 20010904//EN"
 "http://www.w3.org/TR/2001/REC-SVG-20010904/DTD/svg10.dtd">
<svg version="1.0" xmlns="http://www.w3.org/2000/svg"
 width="100.000000pt" height="100.000000pt" viewBox="0 0 100.000000 100.000000"
 preserveAspectRatio="xMidYMid meet">
<metadata>
Created by potrace 1.10, written by Peter Selinger 2001-2011
</metadata>
<g transform="translate(0.000000,100.000000) scale(0.100000,-0.100000)"
fill="#ffffff" stroke="none">
<path d="M397 939 c-120 -28 -249 -133 -301 -244 -83 -175 -49 -374 88 -511
180 -180 452 -180 632 0 178 179 178 453 0 632 -112 112 -270 158 -419 123z
m171 -181 c22 -34 48 -80 57 -100 17 -42 20 -143 5 -182 -5 -15 -6 -26 -1 -26
14 0 51 83 52 116 1 16 4 40 8 54 7 24 7 24 29 -11 32 -53 46 -128 32 -181
-19 -71 -54 -114 -143 -172 -87 -56 -105 -73 -130 -121 l-15 -30 -8 30 c-17
62 -9 120 28 196 39 80 56 153 39 164 -7 4 -11 -4 -11 -20 0 -27 -24 -55 -89
-105 -22 -17 -39 -43 -50 -78 l-18 -53 -36 40 c-49 54 -67 92 -67 141 0 46 9
68 52 123 17 20 43 61 58 89 l29 52 10 -27 c6 -16 11 -46 11 -68 0 -21 5 -39
10 -39 22 0 29 50 19 135 -11 101 -2 148 38 196 l27 31 11 -45 c6 -25 30 -74
53 -109z"/>
</g>
</svg>
