<?xml version="1.0" standalone="no"?>
<!DOCTYPE svg PUBLIC "-//W3C//DTD SVG 20010904//EN"
 "http://www.w3.org/TR/2001/REC-SVG-20010904/DTD/svg10.dtd">
<svg version="1.0" xmlns="http://www.w3.org/2000/svg"
 width="200.000000pt" height="200.000000pt" viewBox="0 0 200.000000 200.000000"
 preserveAspectRatio="xMidYMid meet">
<metadata>
Created by potrace 1.10, written by Peter Selinger 2001-2011
</metadata>
<g transform="translate(0.000000,200.000000) scale(0.050000,-0.050000)"
fill="#ffffff" stroke="none">
<path d="M1650 3628 c-1256 -277 -1733 -1854 -842 -2785 1026 -1071 2791 -354
2799 1137 5 1067 -949 1871 -1957 1648z m482 -996 c3 -178 93 -214 222 -88
l86 84 100 -98 100 -99 -86 -90 c-126 -133 -90 -221 90 -221 l116 0 0 -140 0
-140 -116 0 c-112 0 -118 -3 -148 -65 l-32 -65 88 -91 88 -90 -100 -99 -100
-98 -90 88 c-130 128 -215 92 -218 -91 l-2 -119 -140 0 -140 0 -2 119 c-3 183
-88 219 -218 91 l-90 -88 -100 98 -100 99 88 90 88 91 -32 65 c-30 62 -36 65
-148 65 l-116 0 0 140 0 140 116 0 c180 0 216 88 90 221 l-86 90 100 99 100
98 86 -84 c125 -123 225 -89 216 73 -7 139 0 146 155 139 l133 -6 2 -118z"/>
<path d="M1890 2177 c-161 -89 -144 -325 29 -397 131 -54 281 55 280 203 -1
165 -170 270 -309 194z"/>
</g>
</svg>
